<svg xmlns="http://www.w3.org/2000/svg" xmlns:xlink="http://www.w3.org/1999/xlink"><symbol id="arrow-left" viewBox="0 0 20 18">
	<path d="M9.63388 0.376577C9.14573 -0.125526 8.35427 -0.125526 7.86612 0.376577L0.366117 8.09086C0.131697 8.33198 0 8.65901 0 9C0 9.34099 0.131697 9.66802 0.366117 9.90914L7.86612 17.6234C8.35427 18.1255 9.14573 18.1255 9.63388 17.6234C10.122 17.1213 10.122 16.3073 9.63388 15.8051L4.26777 10.2857L18.75 10.2857C19.4404 10.2857 20 9.71008 20 9C20 8.28992 19.4404 7.71429 18.75 7.71429L4.26777 7.71429L9.63388 2.19485C10.122 1.69275 10.122 0.87868 9.63388 0.376577Z"/>
</symbol><symbol id="arrow-right" viewBox="0 0 20 18">
	<path d="M10.3661 0.376577C10.8543 -0.125526 11.6457 -0.125526 12.1339 0.376577L19.6339 8.09086C19.8683 8.33198 20 8.65901 20 9C20 9.34099 19.8683 9.66802 19.6339 9.90914L12.1339 17.6234C11.6457 18.1255 10.8543 18.1255 10.3661 17.6234C9.87796 17.1213 9.87796 16.3073 10.3661 15.8051L15.7322 10.2857L1.25 10.2857C0.559644 10.2857 0 9.71008 0 9C0 8.28992 0.559644 7.71429 1.25 7.71429L15.7322 7.71429L10.3661 2.19485C9.87796 1.69275 9.87796 0.87868 10.3661 0.376577Z"/>
</symbol><symbol id="logo" viewBox="0 0 64 51">
	<path d="M38.3131 27.7692L35.1182 33.3333C35.885 34.6923 44.0383 48.641 44.8051 50C47.1054 50 61.7252 50 63.9744 50C63.9489 49.9487 38.8498 6.48718 38.3131 5.5641C30.1597 19.7436 24.8435 29.0513 15.9744 44.4359H9.58467C9.58467 44.4359 33.9681 1.97436 35.1182 0H28.7284C28.7284 0 2.12141 46.3077 0 50C2.30032 50 16.9201 50 19.1693 50C19.1693 50 21.3674 46.1795 25.2013 39.4872C27.5527 43.5128 30.8243 49.1026 31.3355 50.0256C32.1789 50.0256 34.7348 50.0256 37.7252 50.0256C35.1693 45.6154 31.0032 38.4615 28.3706 33.9487C31.1566 29.0769 34.5048 23.2564 38.2875 16.6923C39.6166 19 53.0096 42.1282 54.3642 44.4872H47.9744C47.2332 43.1026 39.1054 29.1282 38.3131 27.7692Z"/>
</symbol><symbol id="logotype" viewBox="0 0 116 21">
	<path d="M14.5164 17.2742H5.08232L3.58939 20.6613H0L9.24347 0H10.387L19.6305 20.6613H16.0093L14.5164 17.2742ZM9.81523 6.06598L6.28937 14.4721H13.3093L9.81523 6.06598Z"/>
	<path d="M38.1184 0.338709L28.8749 21H27.7314L18.4879 0.338709H22.2679L28.3032 14.4721L34.3384 0.338709H38.1184Z"/>
	<path d="M51.4922 17.2742H42.0582L40.5653 20.6613H36.9759L46.2193 0H47.3629L56.6063 20.6613H52.9852L51.4922 17.2742ZM46.7911 6.06598L43.2652 14.4721H50.2852L46.7911 6.06598Z"/>
	<path d="M59.9451 0.338709H63.3121V20.6613H59.9451V0.338709ZM77.2885 20.6613H73.1273L63.4074 9.85337L72.2062 0.338709H76.3356L67.6321 9.85337L77.2885 20.6613Z"/>
	<path d="M80.6354 0.338709H94.4212V3.26393H84.0025V8.46774H91.8483V11.3006H84.0025V17.7361H94.8024V20.6613H80.6354V0.338709Z"/>
	<path d="M116 0.338709V21H114.856L102.087 6.89736V20.6613H98.7201V0H99.8954L112.633 14.0411V0.338709H116Z"/>
	</symbol><symbol id="plus" viewBox="0 0 25 25">
	<path d="M11 23.5C11 24.3284 11.6716 25 12.5 25C13.3284 25 14 24.3284 14 23.5V14H23.5C24.3284 14 25 13.3284 25 12.5C25 11.6716 24.3284 11 23.5 11H14V1.5C14 0.671573 13.3284 0 12.5 0C11.6716 0 11 0.671573 11 1.5V11H1.5C0.671573 11 0 11.6716 0 12.5C0 13.3284 0.671573 14 1.5 14H11V23.5Z"/>
	</symbol></svg>